PathFileType	4	(X/Y/Z)	/Users/itak/Documents/Research/Walk-IL/dataset/trc/00445_00167.trc
DataRate	CameraRate	NumFrames	NumMarkers	Units	OrigDataRate	OrigDataStartFrame	OrigNumFrames
100.000000	100.000000	4	54	mm	100.000000	375	501
Frame#	Time	RPSI			L3			STRN			T10			C7			CLAV			RBAK			LBAK			LSHO			LUPA			LAEL			LAOL			LWTS			LWPS			LFRA			LIFD			LHPS			LHTS			RSHO			RUPA			RAEL			RAOL			RWTS			RWPS			RFRA			RIFD			RHTS			RHPS			RBHD			LFHD			RFHD			LBHD			LHIP			RHIP			RASI			LASI			LKNE			LTHI			LANK			LTIP			LTOE			LMT1			LMT5			LHEE			RKNE			RTHI			RANK			RTIP			RTOE			RMT1			RMT5			RHEE			LPSI			*53			
		X1	Y1	Z1	X2	Y2	Z2	X3	Y3	Z3	X4	Y4	Z4	X5	Y5	Z5	X6	Y6	Z6	X7	Y7	Z7	X8	Y8	Z8	X9	Y9	Z9	X10	Y10	Z10	X11	Y11	Z11	X12	Y12	Z12	X13	Y13	Z13	X14	Y14	Z14	X15	Y15	Z15	X16	Y16	Z16	X17	Y17	Z17	X18	Y18	Z18	X19	Y19	Z19	X20	Y20	Z20	X21	Y21	Z21	X22	Y22	Z22	X23	Y23	Z23	X24	Y24	Z24	X25	Y25	Z25	X26	Y26	Z26	X27	Y27	Z27	X28	Y28	Z28	X29	Y29	Z29	X30	Y30	Z30	X31	Y31	Z31	X32	Y32	Z32	X33	Y33	Z33	X34	Y34	Z34	X35	Y35	Z35	X36	Y36	Z36	X37	Y37	Z37	X38	Y38	Z38	X39	Y39	Z39	X40	Y40	Z40	X41	Y41	Z41	X42	Y42	Z42	X43	Y43	Z43	X44	Y44	Z44	X45	Y45	Z45	X46	Y46	Z46	X47	Y47	Z47	X48	Y48	Z48	X49	Y49	Z49	X50	Y50	Z50	X51	Y51	Z51	X52	Y52	Z52	X53	Y53	Z53	X54	Y54	Z54	

376	3.75	1132.114868164062	974.2223510742188	1118.769165039062	1173.802734375	1066.584716796875	1080.751220703125	1425.775512695312	1263.761596679688	1195.935791015625	1164.94921875	1191.203125	1071.030395507812	1219.862915039062	1460.189697265625	1111.22900390625	1393.911865234375	1377.7177734375	1175.12109375	1123.720947265625	1340.277709960938	1166.075073242188	1229.48046875	1410.380737304688	1007.4501953125	1354.129638671875	1435.815551757812	975.6571655273438	1391.077392578125	1322.402709960938	879.2607421875	1463.653442382812	1126.495361328125	851.4495239257812	1370.208251953125	1080.726440429688	865.311279296875	1564.01708984375	1016.576965332031	998.2210693359375	1577.248168945312	965.5941772460938	946.4116821289062	1517.716918945312	1062.457763671875	886.5328979492188	1647.313842773438	915.80224609375	1092.751708984375	1624.828125	917.7876586914062	993.6177978515625	1624.370239257812	973.7584228515625	1039.633178710938	1211.296264648438	1429.510620117188	1283.588134765625	1156.640991210938	1372.4990234375	1340.93408203125	1087.535522460938	1103.173095703125	1404.595092773438	1059.563354492188	1087.389282226562	1344.879272460938	1156.5595703125	883.5762939453125	1432.263061523438	1072.85107421875	893.2279663085938	1449.971801757812	1076.275024414062	1047.086669921875	1418.783813476562	1114.417724609375	735.4666748046875	1464.778198242188	1138.57958984375	788.99755859375	1464.752319335938	1066.122680664062	807.5814208984375	1469.968627929688	1257.12109375	1659.300170898438	1218.0869140625	1438.640258789062	1674.808471679688	1121.446533203125	1390.929077148438	1679.274169921875	1241.87841796875	1305.722778320312	1656.68115234375	1048.1513671875	1382.67626953125	873.4044189453125	958.4309692382812	1166.741333007812	858.9696044921875	1292.602416992188	1284.322631835938	905.3204345703125	1288.593017578125	1420.6806640625	909.0599975585938	1071.627197265625	1415.167358398438	449.2145385742188	1024.741943359375	1436.77734375	606.423583984375	1009.626708984375	1283.529907226562	37.48543167114258	952.8616333007812	1385.652954101562	293.4888916015625	997.2305908203125	1424.830322265625	31.42115592956543	1148.033935546875	1350.484375	57.95592498779297	1125.004638671875	1410.846801757812	31.06867408752441	1034.625732421875	1210.301391601562	44.25246810913086	966.0034790039062	1211.567749023438	474.8206481933594	1288.562744140625	1215.866455078125	727.3157348632812	1335.983154296875	1171.4951171875	43.12585067749023	1263.835693359375	1206.283325195312	328.4482421875	1297.569213867188	1383.693115234375	30.9018611907959	1329.471923828125	1344.76513671875	41.77986145019531	1268.598754882812	1272.048217773438	32.39265441894531	1351.911254882812	1136.17236328125	43.82424926757812	1192.475830078125	1202.497436523438	975.542236328125	994.9649047851562	nan	nan	nan	
377	3.76	1135.044311523438	975.9702758789062	1119.900512695312	1176.90771484375	1068.153686523438	1082.076293945312	1429.208862304688	1263.893432617188	1197.648559570312	1167.87353515625	1192.532348632812	1072.228271484375	1224.155517578125	1460.835571289062	1113.039916992188	1397.705932617188	1377.968872070312	1177.069091796875	1127.423461914062	1341.277465820312	1168.180053710938	1234.029907226562	1411.537963867188	1009.345947265625	1359.07666015625	1436.255615234375	977.8270874023438	1395.68310546875	1322.210327148438	881.9865112304688	1464.499267578125	1123.136352539062	854.669921875	1369.534912109375	1081.353393554688	869.5045776367188	1562.254516601562	1002.442993164062	995.2109985351562	1571.8681640625	952.872802734375	941.2363891601562	1516.254150390625	1055.209594726562	886.3392944335938	1642.265502929688	894.5116577148438	1084.088745117188	1618.194091796875	901.2201538085938	985.6683959960938	1621.206298828125	955.4208374023438	1033.647583007812	1215.403930664062	1430.340454101562	1285.350341796875	1160.869384765625	1373.49560546875	1342.919677734375	1094.280517578125	1103.114013671875	1407.55126953125	1066.955444335938	1085.7451171875	1347.889404296875	1171.140502929688	888.349365234375	1440.300415039062	1086.126586914062	893.2505493164062	1454.52978515625	1084.64453125	1046.745239257812	1422.230834960938	1134.794677734375	738.326171875	1475.895751953125	1156.418701171875	793.5088500976562	1475.279296875	1082.811767578125	808.0098876953125	1476.823120117188	1261.262329101562	1659.332763671875	1220.777587890625	1442.764892578125	1675.009155273438	1124.053100585938	1395.077270507812	1679.136962890625	1244.488159179688	1309.776000976562	1657.199584960938	1050.788330078125	1385.0732421875	873.6422729492188	959.7313232421875	1169.024169921875	859.5447387695312	1293.4169921875	1286.662719726562	905.7713623046875	1289.53466796875	1422.680908203125	908.4672241210938	1071.890625	1415.49658203125	449.2489318847656	1026.882202148438	1437.790161132812	606.2498168945312	1011.800170898438	1287.011840820312	36.92478179931641	955.906005859375	1387.23388671875	293.3388977050781	1000.012512207031	1430.4462890625	34.5081901550293	1148.811767578125	1355.159057617188	58.2797737121582	1127.561889648438	1415.015380859375	32.48940277099609	1036.616455078125	1213.6328125	42.19762420654297	969.6452026367188	1209.43212890625	475.1393432617188	1287.475708007812	1218.681884765625	727.475341796875	1337.224487304688	1171.3369140625	42.70831680297852	1263.652465820312	1204.1240234375	328.7244873046875	1296.7509765625	1383.455932617188	31.00466537475586	1329.569091796875	1344.530639648438	41.9149169921875	1268.642700195312	1271.951904296875	32.45181655883789	1351.82177734375	1136.304809570312	43.01595687866211	1192.259765625	1205.372192382812	976.7324829101562	996.2346801757812	nan	nan	nan	
378	3.77	1137.9296875	977.7299194335938	1120.739013671875	1179.99951171875	1069.81005859375	1083.111206054688	1432.609619140625	1263.967041015625	1199.145874023438	1170.82763671875	1193.92431640625	1073.142211914062	1228.508911132812	1461.438598632812	1114.5302734375	1401.499755859375	1378.1708984375	1178.795166015625	1131.111083984375	1342.299194335938	1169.989990234375	1238.735229492188	1412.679321289062	1010.90966796875	1364.182495117188	1436.66845703125	979.8302001953125	1400.62744140625	1322.0947265625	884.5659790039062	1465.447143554688	1120.048950195312	857.8811645507812	1369.125	1082.064575195312	873.5380249023438	1559.878173828125	989.1270141601562	992.0056762695312	1566.104858398438	941.2677612304688	935.97119140625	1514.651123046875	1048.590698242188	886.1329345703125	1636.165161132812	874.4059448242188	1075.1748046875	1610.907958984375	885.9536743164062	977.5902099609375	1617.152099609375	938.0880737304688	1027.4736328125	1219.504150390625	1431.174194335938	1286.7900390625	1165.095825195312	1374.595581054688	1344.61181640625	1101.006958007812	1103.157592773438	1410.3251953125	1074.275390625	1084.274658203125	1350.766235351562	1185.689819335938	893.325439453125	1447.604614257812	1099.770751953125	893.3690185546875	1458.819702148438	1093.086791992188	1046.558959960938	1425.493286132812	1155.7919921875	741.7984619140625	1485.949340820312	1174.688110351562	798.5977172851562	1484.96044921875	1100.118530273438	808.6354370117188	1483.040893554688	1265.363403320312	1659.255004882812	1223.203002929688	1446.870239257812	1675.165405273438	1126.428344726562	1399.165893554688	1678.958251953125	1246.87353515625	1313.847778320312	1657.614624023438	1053.146606445312	1387.445922851562	873.8474731445312	961.0809936523438	1170.966674804688	860.1597290039062	1294.221313476562	1288.66259765625	906.2620849609375	1290.465942382812	1424.615966796875	907.8895874023438	1072.371337890625	1415.64599609375	449.2516784667969	1028.73681640625	1438.604736328125	606.0455932617188	1013.771118164062	1290.8388671875	36.14495086669922	959.0625610351562	1388.955932617188	293.1631774902344	1002.648986816406	1436.051147460938	37.3259162902832	1150.003295898438	1360.044067382812	58.07887268066406	1130.261596679688	1419.452758789062	33.5865478515625	1038.702758789062	1217.322998046875	40.10806655883789	973.3578491210938	1207.30908203125	475.4671325683594	1286.42138671875	1221.148315429688	727.6763305664062	1338.447998046875	1171.14111328125	42.29696273803711	1263.524536132812	1202.01220703125	329.0095520019531	1295.997680664062	1383.175048828125	31.12807083129883	1329.66455078125	1344.242919921875	42.07595062255859	1268.670776367188	1271.860961914062	32.51963424682617	1351.735473632812	1136.354248046875	42.13706588745117	1192.154663085938	1208.312133789062	977.9656982421875	997.3200073242188	nan	nan	nan	
379	3.78	1140.765747070312	979.3817138671875	1121.31494140625	1183.0625	1071.407104492188	1083.869750976562	1435.981811523438	1263.872924804688	1200.451904296875	1173.835815429688	1195.23876953125	1073.826171875	1232.89599609375	1461.887084960938	1115.718994140625	1405.288940429688	1378.202880859375	1180.309326171875	1134.789184570312	1343.213256835938	1171.505126953125	1243.547485351562	1413.660522460938	1012.168518066406	1369.390380859375	1436.92138671875	981.6657104492188	1405.843383789062	1321.922729492188	886.9826049804688	1466.528076171875	1117.157470703125	861.0392456054688	1369.013305664062	1082.742797851562	877.302978515625	1556.99658203125	976.6609497070312	988.6422119140625	1560.105834960938	930.75341796875	930.681640625	1512.990966796875	1042.54833984375	885.9161376953125	1629.172973632812	855.5822143554688	1066.128540039062	1603.097778320312	871.9833984375	969.4888305664062	1612.351928710938	921.8236083984375	1021.185424804688	1223.588989257812	1431.881958007812	1287.92626953125	1169.327880859375	1375.64599609375	1346.034301757812	1107.722900390625	1103.208251953125	1412.975830078125	1081.47998046875	1082.898559570312	1353.599487304688	1200.175415039062	898.3633422851562	1454.150634765625	1113.791381835938	893.5475463867188	1462.965454101562	1101.609252929688	1046.447509765625	1428.64453125	1177.323608398438	745.7987060546875	1494.897094726562	1193.298828125	804.044921875	1493.62939453125	1118.028076171875	809.4197998046875	1488.7177734375	1269.407470703125	1658.959716796875	1225.346557617188	1450.929809570312	1675.163208007812	1128.553588867188	1403.18701171875	1678.641479492188	1249.022827148438	1317.908447265625	1657.798461914062	1055.219848632812	1389.751831054688	873.9125366210938	962.4647827148438	1172.57763671875	860.7124633789062	1295.061157226562	1290.330810546875	906.6903076171875	1291.432739257812	1426.603515625	907.4324951171875	1073.314086914062	1415.743041992188	449.1170959472656	1030.267578125	1439.333740234375	605.7250366210938	1015.4921875	1294.766357421875	35.10651016235352	962.207275390625	1390.783569335938	292.8876342773438	1005.024169921875	1441.351440429688	39.39544677734375	1151.579467773438	1364.888549804688	57.24592590332031	1132.997924804688	1423.928955078125	34.11087799072266	1040.804565429688	1221.142578125	38.05622100830078	976.994384765625	1205.347900390625	475.6840209960938	1285.44677734375	1223.277221679688	727.8160400390625	1339.702270507812	1170.908203125	41.83416748046875	1263.439331054688	1200.088134765625	329.1885681152344	1295.3271484375	1382.85888671875	31.27046966552734	1329.741088867188	1343.912841796875	42.23198318481445	1268.6396484375	1271.774658203125	32.5981330871582	1351.640014648438	1136.296142578125	41.10628128051758	1192.14599609375	1211.293090820312	979.1439819335938	998.2345581054688	nan	nan	nan	
